<?xml version="1.0" encoding="UTF-8"?>
<svg version="1.1" xmlns="http://www.w3.org/2000/svg" width="248" height="239">
<path d="M0 0 C-0.40515322 4.94286929 -1.00772382 9.82601265 -2 14.6875 C-2.165 15.55761719 -2.33 16.42773438 -2.5 17.32421875 C-4.91900957 21.63937906 -8.81214372 23.52746631 -13 26 C-13.98307129 26.58338135 -14.96614258 27.1667627 -15.97900391 27.76782227 C-19.24464526 29.67970593 -22.52566535 31.56230646 -25.8125 33.4375 C-29.11885758 35.33211077 -32.42450928 37.22722093 -35.72045898 39.13989258 C-37.94472452 40.40146327 -40.19597917 41.61638085 -42.46899414 42.7878418 C-48.73827006 45.799836 -48.73827006 45.799836 -52.20703125 51.40234375 C-52.07683594 52.56894531 -51.94664063 53.73554687 -51.8125 54.9375 C-51.65201172 56.90396484 -51.65201172 56.90396484 -51.48828125 58.91015625 C-51.36573975 59.92360107 -51.36573975 59.92360107 -51.24072266 60.95751953 C-50.85222625 64.25382881 -50.69370177 67.56237135 -50.5 70.875 C-50.45625244 71.53338867 -50.41250488 72.19177734 -50.36743164 72.87011719 C-49.19895849 90.57945334 -49.14540798 107.27728046 -60.5703125 122.02734375 C-66.77875893 128.3889133 -75.7233525 130.49024294 -84 133 C-85.11246094 133.34289062 -86.22492188 133.68578125 -87.37109375 134.0390625 C-91.89785717 135.35348227 -95.20407653 136 -100 136 C-100.66 128.08 -101.32 120.16 -102 112 C-104.97 113.32 -107.94 114.64 -111 116 C-115.62694188 116.79408327 -119.63780074 116.60864222 -123.9375 114.6875 C-128.84408835 110.67301862 -128.84408835 110.67301862 -129.46875 107.9765625 C-129.68324246 91.83600515 -119.20307413 77.24745374 -108.82421875 65.671875 C-105.15173542 62.30608728 -101.98547654 61.55410691 -96.96875 61.67578125 C-93.82167637 62.19404933 -92.14240335 63.72775402 -90 66 C-89.12735168 68.61794496 -88.80425906 70.45836623 -88.62695312 73.16430664 C-88.57019409 73.99849625 -88.51343506 74.83268585 -88.45495605 75.69215393 C-88.39763306 76.5890947 -88.34031006 77.48603546 -88.28125 78.41015625 C-88.21844849 79.33340195 -88.15564697 80.25664764 -88.09094238 81.20787048 C-87.82205089 85.16138172 -87.56227881 89.11547771 -87.30224609 93.06958008 C-87.111219 95.95418399 -86.91514701 98.83841378 -86.71875 101.72265625 C-86.661427 102.62162125 -86.604104 103.52058624 -86.54504395 104.4467926 C-86.48828491 105.27783005 -86.43152588 106.10886749 -86.37304688 106.96508789 C-86.32498901 107.69772354 -86.27693115 108.43035919 -86.22741699 109.18519592 C-86.08998677 111.09713504 -86.08998677 111.09713504 -85 113 C-83.90300781 112.72285156 -82.80601563 112.44570312 -81.67578125 112.16015625 C-80.22137007 111.79420763 -78.7669421 111.42832573 -77.3125 111.0625 C-76.2306543 110.78889648 -76.2306543 110.78889648 -75.12695312 110.50976562 C-74.42119141 110.33251953 -73.71542969 110.15527344 -72.98828125 109.97265625 C-72.34415283 109.81031494 -71.70002441 109.64797363 -71.03637695 109.48071289 C-68.70118335 108.9294605 -66.35479619 108.45951604 -64 108 C-64.06058594 107.04859131 -64.12117188 106.09718262 -64.18359375 105.11694336 C-64.41196362 101.51078443 -64.6340669 97.90425993 -64.85449219 94.29760742 C-64.949848 92.75095537 -65.04679526 91.20440043 -65.14550781 89.65795898 C-65.4778516 84.44050071 -65.76535421 79.22278225 -66 74 C-66.03378754 73.2880246 -66.06757507 72.57604919 -66.10238647 71.84249878 C-66.18899286 69.80991385 -66.24162383 67.77596867 -66.29296875 65.7421875 C-66.32672607 64.57929199 -66.3604834 63.41639648 -66.39526367 62.21826172 C-65.77936073 57.20354113 -63.0899706 54.17567447 -60.03515625 50.29296875 C-57.874597 46.79709265 -57.33537799 44.32777731 -56.6706543 40.36035156 C-55.590369 34.2987159 -54.36412307 29.57921994 -49.265625 25.77734375 C-45.07768012 23.1220542 -40.66994111 20.90943474 -36.23828125 18.69287109 C-32.53104667 16.75484602 -28.95610052 14.64790898 -25.375 12.48828125 C-24.72390259 12.09700546 -24.07280518 11.70572968 -23.40197754 11.30259705 C-20.78553382 9.72932133 -18.17018211 8.15424067 -15.5559082 6.57736206 C-13.71953353 5.47486082 -11.87646837 4.38449247 -10.03125 3.296875 C-8.43120117 2.34312988 -8.43120117 2.34312988 -6.79882812 1.37011719 C-4 0 -4 0 0 0 Z M-116 86 C-117.23075102 87.9172483 -117.23075102 87.9172483 -117 90 C-115.14944202 92.23343204 -113.59616917 93.70191542 -111 95 C-108.6670134 95.04022391 -106.33293334 95.04320247 -104 95 C-103.5787738 89.04120537 -103.5787738 89.04120537 -105.25 83.4375 C-109.49986494 79.94653951 -112.7340258 82.82229537 -116 86 Z " fill="#000000" transform="translate(156,48)"/>
<path d="M0 0 C0.54537563 7.362571 -0.71303127 14.03067321 -5.54296875 19.86328125 C-12.20734605 26.00914865 -20.66300122 27.55774269 -29.27709961 29.37939453 C-35.36901927 30.77086365 -38.61227053 32.84493777 -41.9921875 38.09375 C-42.61351562 39.2178125 -43.23484375 40.341875 -43.875 41.5 C-47.00147141 46.78291066 -48.99040758 50.12815974 -55 52 C-68.03431974 54.14289721 -83.59223249 49.2582975 -95 43 C-94.8515625 41.12841797 -94.8515625 41.12841797 -94 39 C-85.4774053 34.91970436 -75.21638094 33.66891967 -66 31.875 C-63.45748252 31.37671768 -60.9157749 30.8742805 -58.375 30.3671875 C-57.26898438 30.15175293 -56.16296875 29.93631836 -55.0234375 29.71435547 C-49.33469234 28.47624902 -49.33469234 28.47624902 -45.375 24.57421875 C-44.92125 23.62160156 -44.4675 22.66898438 -44 21.6875 C-41.79729636 17.36681208 -39.75774056 14.16441311 -36 11 C-35.40300293 10.49017578 -34.80600586 9.98035156 -34.19091797 9.45507812 C-31.62223059 7.7491079 -29.59583658 7.27718148 -26.5703125 6.71875 C-25.52746094 6.51636719 -24.48460937 6.31398437 -23.41015625 6.10546875 C-22.32605469 5.90566406 -21.24195313 5.70585937 -20.125 5.5 C-13.89837593 4.3441596 -5.8001048 0 0 0 Z " fill="#000000" transform="translate(226,132)"/>
<path d="M0 0 C-0.9873999 7.43387279 -2.95165706 15.11564806 -9 20 C-18.44259422 24.06771456 -29.7675259 25.37736784 -40 25 C-38.61482643 20.54041678 -36.91261036 16.42138625 -34.8125 12.25 C-34.26207031 11.12078125 -33.71164063 9.9915625 -33.14453125 8.828125 C-30.45478572 5.28099246 -28.18223229 4.71625898 -24 4 C-22.77083862 3.74476562 -22.77083862 3.74476562 -21.5168457 3.484375 C-18.76636961 2.91694726 -16.01039714 2.39185661 -13.25 1.875 C-12.30511719 1.69324219 -11.36023438 1.51148437 -10.38671875 1.32421875 C-3.38727679 0 -3.38727679 0 0 0 Z " fill="#000000" transform="translate(76,76)"/>
<path d="M0 0 C3.54615991 0.5976674 5.50132351 1.95894574 8.1875 4.3125 C8.88230469 4.90675781 9.57710937 5.50101563 10.29296875 6.11328125 C13.05078017 9.16138861 13.05078017 9.16138861 13 12 C11.47570332 14.38816307 9.97704507 16.45526742 8.1875 18.625 C7.72279297 19.21023437 7.25808594 19.79546875 6.77929688 20.3984375 C4.93884683 22.70098046 3.08540222 24.91459778 1 27 C-3.06108752 26.80041664 -5.06026394 24.24590088 -7.75 21.4375 C-8.54921875 20.61121094 -9.3484375 19.78492188 -10.171875 18.93359375 C-10.77515625 18.29550781 -11.3784375 17.65742188 -12 17 C-10.53416665 12.45928635 -7.95468267 9.23733031 -4.875 5.6875 C-4.40707031 5.13771484 -3.93914062 4.58792969 -3.45703125 4.02148438 C-2.31047517 2.67603591 -1.15602549 1.337321 0 0 Z " fill="#000000" transform="translate(209,174)"/>
</svg>
