<?xml version="1.0" encoding="UTF-8"?>
<svg version="1.1" xmlns="http://www.w3.org/2000/svg" width="262" height="262">
<path d="M0 0 C-0.40515322 4.94286929 -1.00772382 9.82601265 -2 14.6875 C-2.165 15.55761719 -2.33 16.42773438 -2.5 17.32421875 C-4.91900957 21.63937906 -8.81214372 23.52746631 -13 26 C-13.98307129 26.58338135 -14.96614258 27.1667627 -15.97900391 27.76782227 C-19.24464526 29.67970593 -22.52566535 31.56230646 -25.8125 33.4375 C-29.11852033 35.33191751 -32.42388332 37.22688 -35.72045898 39.13769531 C-37.94712058 40.40211686 -40.1981705 41.62434051 -42.46899414 42.80761719 C-43.55946045 43.3905957 -44.64992676 43.97357422 -45.7734375 44.57421875 C-46.75876465 45.08170654 -47.7440918 45.58919434 -48.75927734 46.11206055 C-51.30254276 47.87487463 -51.30254276 47.87487463 -51.75317383 51.17089844 C-51.82137387 54.85426202 -51.45377484 58.34438986 -51 62 C-50.79389587 64.76873219 -50.64998133 67.54023358 -50.5 70.3125 C-50.45625244 71.02164551 -50.41250488 71.73079102 -50.36743164 72.46142578 C-49.2708471 90.32468732 -49.02659848 107.12389207 -60.5703125 122.02734375 C-66.77875893 128.3889133 -75.7233525 130.49024294 -84 133 C-85.11246094 133.34289062 -86.22492188 133.68578125 -87.37109375 134.0390625 C-91.89785717 135.35348227 -95.20407653 136 -100 136 C-100.66 128.41 -101.32 120.82 -102 113 C-105.0571662 112.74275212 -105.0571662 112.74275212 -107.5 114.5 C-112.3780486 116.59059226 -116.76348178 116.72254628 -122 116 C-125.15048629 114.69444829 -127.4368922 113.12621561 -129 110 C-130.993422 95.96061365 -122.56486315 82.97025756 -114.5 72.1875 C-111.21805675 68.07597464 -107.76803952 64.38401976 -103 62 C-95.93812375 61.42115768 -95.93812375 61.42115768 -92.0625 63.8125 C-89.30801043 66.73392833 -88.88743192 69.19399987 -88.62695312 73.05664062 C-88.57019409 73.86758179 -88.51343506 74.67852295 -88.45495605 75.51403809 C-88.39763306 76.38596802 -88.34031006 77.25789795 -88.28125 78.15625 C-88.21844849 79.05492798 -88.15564697 79.95360596 -88.09094238 80.8795166 C-87.82223561 84.72641565 -87.56268797 88.57392073 -87.30224609 92.42138672 C-87.11088882 95.229068 -86.91493337 98.03640249 -86.71875 100.84375 C-86.661427 101.71567993 -86.604104 102.58760986 -86.54504395 103.48596191 C-86.48828491 104.29690308 -86.43152588 105.10784424 -86.37304688 105.94335938 C-86.32498901 106.65600952 -86.27693115 107.36865967 -86.22741699 108.10290527 C-86.03797021 110.22119511 -86.03797021 110.22119511 -85 113 C-83.90300781 112.72285156 -82.80601563 112.44570312 -81.67578125 112.16015625 C-80.22137007 111.79420763 -78.7669421 111.42832573 -77.3125 111.0625 C-76.2306543 110.78889648 -76.2306543 110.78889648 -75.12695312 110.50976562 C-74.42119141 110.33251953 -73.71542969 110.15527344 -72.98828125 109.97265625 C-72.34415283 109.81031494 -71.70002441 109.64797363 -71.03637695 109.48071289 C-68.70118335 108.9294605 -66.35479619 108.45951604 -64 108 C-64.06058594 107.08412109 -64.12117188 106.16824219 -64.18359375 105.22460938 C-64.41136289 101.74324569 -64.63439648 98.26163934 -64.85449219 94.77978516 C-64.94967656 93.28845689 -65.0466109 91.79723902 -65.14550781 90.30615234 C-65.48298085 85.20617717 -65.77197548 80.10607744 -66 75 C-66.03378754 74.26199158 -66.06757507 73.52398315 -66.10238647 72.76361084 C-66.18980829 70.60015127 -66.2466645 68.43812973 -66.29296875 66.2734375 C-66.32672607 65.01450684 -66.3604834 63.75557617 -66.39526367 62.45849609 C-65.80297937 57.2760999 -63.22087624 54.27624073 -60.0625 50.2734375 C-57.48893145 46.18887226 -56.78483151 42.42041028 -55.8125 37.75 C-54.74622727 33.26395317 -53.89764016 29.93044428 -50.6484375 26.5625 C-47.92506962 24.8954252 -45.17326398 23.47269504 -42.27929688 22.12744141 C-37.34430804 19.68637688 -32.67097939 16.74344546 -27.9375 13.9375 C-24.96692874 12.20585255 -21.99265399 10.48090565 -19.01513672 8.76123047 C-16.90645352 7.52948629 -14.80998512 6.27669934 -12.72314453 5.00830078 C-11.12962158 4.04706299 -11.12962158 4.04706299 -9.50390625 3.06640625 C-8.54427979 2.47931885 -7.58465332 1.89223145 -6.59594727 1.28735352 C-4 0 -4 0 0 0 Z M-116 86 C-117.23075102 87.9172483 -117.23075102 87.9172483 -117 90 C-115.14944202 92.23343204 -113.59616917 93.70191542 -111 95 C-108.6670134 95.04022391 -106.33293334 95.04320247 -104 95 C-103.56704221 87.96636824 -103.56704221 87.96636824 -107 82 C-111.70781138 82 -112.70934836 82.79828489 -116 86 Z " fill="#EBEBEB" transform="translate(163,49)"/>
<path d="M0 0 C0.54537563 7.362571 -0.71303127 14.03067321 -5.54296875 19.86328125 C-12.20734605 26.00914865 -20.66300122 27.55774269 -29.27709961 29.37939453 C-35.36901927 30.77086365 -38.61227053 32.84493777 -41.9921875 38.09375 C-42.61351562 39.2178125 -43.23484375 40.341875 -43.875 41.5 C-47.00147141 46.78291066 -48.99040758 50.12815974 -55 52 C-67.0880223 54.24274628 -84.88678574 49.74214284 -95 43 C-94.8515625 41.12841797 -94.8515625 41.12841797 -94 39 C-85.4774053 34.91970436 -75.21638094 33.66891967 -66 31.875 C-63.45748252 31.37671768 -60.9157749 30.8742805 -58.375 30.3671875 C-57.26898438 30.15175293 -56.16296875 29.93631836 -55.0234375 29.71435547 C-49.33469234 28.47624902 -49.33469234 28.47624902 -45.375 24.57421875 C-44.92125 23.62160156 -44.4675 22.66898438 -44 21.6875 C-41.79729636 17.36681208 -39.75774056 14.16441311 -36 11 C-35.40300293 10.49017578 -34.80600586 9.98035156 -34.19091797 9.45507812 C-31.62223059 7.7491079 -29.59583658 7.27718148 -26.5703125 6.71875 C-25.52746094 6.51636719 -24.48460937 6.31398437 -23.41015625 6.10546875 C-22.32605469 5.90566406 -21.24195313 5.70585937 -20.125 5.5 C-13.89837593 4.3441596 -5.8001048 0 0 0 Z " fill="#E7E7E7" transform="translate(233,133)"/>
<path d="M0 0 C-0.40515322 4.94286929 -1.00772382 9.82601265 -2 14.6875 C-2.165 15.55761719 -2.33 16.42773438 -2.5 17.32421875 C-4.91900957 21.63937906 -8.81214372 23.52746631 -13 26 C-14.47460693 26.87507202 -14.47460693 26.87507202 -15.97900391 27.76782227 C-19.24464526 29.67970593 -22.52566535 31.56230646 -25.8125 33.4375 C-29.11957738 35.33252323 -32.42592167 37.2280314 -35.72216797 39.1418457 C-37.93966875 40.39891396 -40.18522733 41.60752746 -42.45361328 42.77026367 C-48.86837349 45.9018595 -48.86837349 45.9018595 -52.390625 51.74609375 C-52.34421875 52.96425781 -52.2978125 54.18242188 -52.25 55.4375 C-52.23453125 56.67371094 -52.2190625 57.90992188 -52.203125 59.18359375 C-52.13609375 60.11300781 -52.0690625 61.04242188 -52 62 C-52.33 62 -52.66 62 -53 62 C-53.33 57.38 -53.66 52.76 -54 48 C-55.32 48.99 -56.64 49.98 -58 51 C-58.66 50.67 -59.32 50.34 -60 50 C-59.53335938 49.16210938 -59.06671875 48.32421875 -58.5859375 47.4609375 C-56.90794835 43.79911882 -56.318251 40.58060866 -55.625 36.625 C-54.68707118 32.67127661 -53.66600043 29.65358347 -50.6953125 26.73828125 C-47.95669046 25.06387175 -45.17819347 23.58523557 -42.29541016 22.17578125 C-37.38387205 19.65993701 -32.6863293 16.74459392 -27.9375 13.9375 C-24.96667924 12.20629015 -21.9926502 10.48090346 -19.01513672 8.76123047 C-16.90645352 7.52948629 -14.80998512 6.27669934 -12.72314453 5.00830078 C-11.12962158 4.04706299 -11.12962158 4.04706299 -9.50390625 3.06640625 C-8.54427979 2.47931885 -7.58465332 1.89223145 -6.59594727 1.28735352 C-4 0 -4 0 0 0 Z " fill="#E3E3E3" transform="translate(163,49)"/>
<path d="M0 0 C-0.9873999 7.43387279 -2.95165706 15.11564806 -9 20 C-18.44259422 24.06771456 -29.7675259 25.37736784 -40 25 C-38.61482643 20.54041678 -36.91261036 16.42138625 -34.8125 12.25 C-34.26207031 11.12078125 -33.71164063 9.9915625 -33.14453125 8.828125 C-30.45478572 5.28099246 -28.18223229 4.71625898 -24 4 C-22.77083862 3.74476562 -22.77083862 3.74476562 -21.5168457 3.484375 C-18.76636961 2.91694726 -16.01039714 2.39185661 -13.25 1.875 C-12.30511719 1.69324219 -11.36023438 1.51148437 -10.38671875 1.32421875 C-3.38727679 0 -3.38727679 0 0 0 Z " fill="#E5E5E5" transform="translate(83,77)"/>
<path d="M0 0 C3.54615991 0.5976674 5.50132351 1.95894574 8.1875 4.3125 C8.88230469 4.90675781 9.57710937 5.50101563 10.29296875 6.11328125 C13.05078017 9.16138861 13.05078017 9.16138861 13 12 C11.47570332 14.38816307 9.97704507 16.45526742 8.1875 18.625 C7.72279297 19.21023437 7.25808594 19.79546875 6.77929688 20.3984375 C4.93884683 22.70098046 3.08540222 24.91459778 1 27 C-3.06108752 26.80041664 -5.06026394 24.24590088 -7.75 21.4375 C-8.54921875 20.61121094 -9.3484375 19.78492188 -10.171875 18.93359375 C-10.77515625 18.29550781 -11.3784375 17.65742188 -12 17 C-10.53416665 12.45928635 -7.95468267 9.23733031 -4.875 5.6875 C-4.40707031 5.13771484 -3.93914062 4.58792969 -3.45703125 4.02148438 C-2.31047517 2.67603591 -1.15602549 1.337321 0 0 Z " fill="#DBDBDB" transform="translate(216,175)"/>
<path d="M0 0 C-1.39332574 3.36720387 -2.9789286 4.9859524 -6 7 C-6.66 6.67 -7.32 6.34 -8 6 C-7.0479279 4.99403703 -6.08812654 3.99538437 -5.125 3 C-4.59132812 2.443125 -4.05765625 1.88625 -3.5078125 1.3125 C-2 0 -2 0 0 0 Z " fill="#B7B7B7" transform="translate(58,113)"/>
<path d="M0 0 C1.4540625 0.0309375 1.4540625 0.0309375 2.9375 0.0625 C2.1021875 0.43375 2.1021875 0.43375 1.25 0.8125 C-1.46221127 2.27856015 -3.69837365 4.09239471 -6.0625 6.0625 C-3.76028481 0.07674051 -3.76028481 0.07674051 0 0 Z " fill="#ADADAD" transform="translate(56.0625,81.9375)"/>
</svg>
